SplineFontDB: 3.2
FontName: Cinnamon
FullName: Cinnamon
FamilyName: Cinnamon
Weight: Regular
Copyright: Copyright (c) 2023, Robin
UComments: "2023-1-7: Created with FontForge (http://fontforge.org)"
Version: 001.000
ItalicAngle: 0
UnderlinePosition: -40
UnderlineWidth: 20
Ascent: 300
Descent: 100
InvalidEm: 0
LayerCount: 2
Layer: 0 0 "Back" 1
Layer: 1 0 "Fore" 0
XUID: [1021 475 -824446587 14189750]
StyleMap: 0x0000
FSType: 0
OS2Version: 0
OS2_WeightWidthSlopeOnly: 0
OS2_UseTypoMetrics: 1
CreationTime: 1673069397
ModificationTime: 1673662414
PfmFamily: 17
TTFWeight: 400
TTFWidth: 5
LineGap: 36
VLineGap: 0
OS2TypoAscent: 0
OS2TypoAOffset: 1
OS2TypoDescent: 0
OS2TypoDOffset: 1
OS2TypoLinegap: 36
OS2WinAscent: 0
OS2WinAOffset: 1
OS2WinDescent: 0
OS2WinDOffset: 1
HheadAscent: 0
HheadAOffset: 1
HheadDescent: 0
HheadDOffset: 1
OS2Vendor: 'PfEd'
MarkAttachClasses: 1
DEI: 91125
Encoding: ISO8859-1
UnicodeInterp: none
NameList: AGL For New Fonts
DisplaySize: -48
AntiAlias: 0
FitToEm: 0
WinInfo: 0 29 10
BeginPrivate: 0
EndPrivate
BeginChars: 256 256

StartChar: A
Encoding: 65 65 0
Width: 300
Flags: HW
LayerCount: 2
Fore
SplineSet
200 300 m 1
 200 200 l 1
 300 200 l 1
 300 0 l 1
 200 0 l 1
 200 100 l 1
 100 100 l 1
 100 0 l 1
 0 0 l 1
 0 200 l 1
 100 200 l 1
 100 300 l 1
 200 300 l 1
EndSplineSet
Validated: 1
EndChar

StartChar: B
Encoding: 66 66 1
Width: 300
Flags: HW
LayerCount: 2
Fore
SplineSet
200 300 m 1
 200 200 l 1
 300 200 l 1
 300 0 l 1
 0 0 l 1
 0 300 l 1
 200 300 l 1
EndSplineSet
Validated: 1
EndChar

StartChar: C
Encoding: 67 67 2
Width: 300
Flags: HW
LayerCount: 2
Fore
SplineSet
0 300 m 1
 300 300 l 1
 300 200 l 1
 100 200 l 1
 100 100 l 1
 300 100 l 1
 300 0 l 1
 0 0 l 1
 0 300 l 1
EndSplineSet
Validated: 1
EndChar

StartChar: D
Encoding: 68 68 3
Width: 300
Flags: HW
LayerCount: 2
Fore
SplineSet
100 200 m 1
 100 100 l 1
 200 100 l 1
 200 0 l 1
 0 0 l 1
 0 300 l 1
 200 300 l 1
 200 200 l 1
 100 200 l 1
200 100 m 1
 200 200 l 1
 300 200 l 1
 300 100 l 1
 200 100 l 1
EndSplineSet
Validated: 5
EndChar

StartChar: E
Encoding: 69 69 4
Width: 300
Flags: HW
LayerCount: 2
Fore
SplineSet
0 300 m 1
 300 300 l 1
 300 200 l 1
 200 200 l 1
 200 100 l 1
 300 100 l 1
 300 0 l 1
 0 0 l 1
 0 300 l 1
EndSplineSet
Validated: 1
EndChar

StartChar: F
Encoding: 70 70 5
Width: 300
Flags: HW
LayerCount: 2
Fore
SplineSet
0 300 m 1
 300 300 l 1
 300 200 l 1
 200 200 l 1
 200 100 l 1
 100 100 l 1
 100 0 l 1
 0 0 l 1
 0 300 l 1
EndSplineSet
Validated: 1
EndChar

StartChar: G
Encoding: 71 71 6
Width: 300
Flags: HW
LayerCount: 2
Fore
SplineSet
200 100 m 1
 200 200 l 1
 300 200 l 1
 300 0 l 1
 0 0 l 1
 0 300 l 1
 200 300 l 1
 200 200 l 1
 100 200 l 1
 100 100 l 1
 200 100 l 1
EndSplineSet
Validated: 5
EndChar

StartChar: H
Encoding: 72 72 7
Width: 300
Flags: HW
LayerCount: 2
Fore
SplineSet
200 200 m 1
 200 300 l 1
 300 300 l 1
 300 0 l 1
 200 0 l 1
 200 100 l 1
 100 100 l 1
 100 0 l 1
 0 0 l 1
 0 300 l 1
 100 300 l 1
 100 200 l 1
 200 200 l 1
EndSplineSet
Validated: 1
EndChar

StartChar: I
Encoding: 73 73 8
Width: 300
Flags: HW
LayerCount: 2
Fore
SplineSet
0 300 m 1
 300 300 l 1
 300 200 l 1
 200 200 l 1
 200 100 l 1
 300 100 l 1
 300 0 l 1
 0 0 l 1
 0 100 l 1
 100 100 l 1
 100 200 l 1
 0 200 l 1
 0 300 l 1
EndSplineSet
Validated: 1
EndChar

StartChar: J
Encoding: 74 74 9
Width: 300
Flags: HW
LayerCount: 2
Fore
SplineSet
200 200 m 1
 200 300 l 1
 300 300 l 1
 300 0 l 1
 0 0 l 1
 0 200 l 1
 100 200 l 1
 100 100 l 1
 200 100 l 1
 200 200 l 1
EndSplineSet
Validated: 1
EndChar

StartChar: K
Encoding: 75 75 10
Width: 300
Flags: HW
LayerCount: 2
Fore
SplineSet
100 300 m 1
 100 200 l 1
 200 200 l 1
 200 100 l 1
 100 100 l 1
 100 0 l 1
 0 0 l 1
 0 300 l 1
 100 300 l 1
200 200 m 1
 200 300 l 1
 300 300 l 1
 300 200 l 1
 200 200 l 1
200 0 m 1
 200 100 l 1
 300 100 l 1
 300 0 l 1
 200 0 l 1
EndSplineSet
Validated: 5
EndChar

StartChar: L
Encoding: 76 76 11
Width: 300
Flags: HW
LayerCount: 2
Fore
SplineSet
100 100 m 1
 300 100 l 1
 300 0 l 1
 0 0 l 1
 0 300 l 1
 100 300 l 1
 100 100 l 1
EndSplineSet
Validated: 1
EndChar

StartChar: M
Encoding: 77 77 12
Width: 300
Flags: HW
LayerCount: 2
Fore
SplineSet
0 300 m 1
 300 300 l 1
 300 0 l 1
 200 0 l 1
 200 100 l 1
 100 100 l 1
 100 0 l 1
 0 0 l 1
 0 300 l 1
EndSplineSet
Validated: 1
EndChar

StartChar: N
Encoding: 78 78 13
Width: 300
Flags: HW
LayerCount: 2
Fore
SplineSet
0 300 m 1
 300 300 l 1
 300 0 l 1
 200 0 l 1
 200 200 l 1
 100 200 l 1
 100 0 l 1
 0 0 l 1
 0 300 l 1
EndSplineSet
Validated: 1
EndChar

StartChar: O
Encoding: 79 79 14
Width: 300
Flags: HW
LayerCount: 2
Fore
SplineSet
0 300 m 1
 300 300 l 1
 300 0 l 1
 0 0 l 1
 0 300 l 1
200 100 m 1
 200 200 l 1
 100 200 l 1
 100 100 l 1
 200 100 l 1
EndSplineSet
Validated: 1
EndChar

StartChar: P
Encoding: 80 80 15
Width: 300
Flags: HW
LayerCount: 2
Fore
SplineSet
0 300 m 1
 300 300 l 1
 300 100 l 1
 100 100 l 1
 100 0 l 1
 0 0 l 1
 0 300 l 1
EndSplineSet
Validated: 1
EndChar

StartChar: S
Encoding: 83 83 16
Width: 300
Flags: HW
LayerCount: 2
Fore
SplineSet
100 300 m 1
 300 300 l 1
 300 200 l 1
 200 200 l 1
 200 0 l 1
 0 0 l 1
 0 100 l 1
 100 100 l 1
 100 300 l 1
EndSplineSet
Validated: 1
EndChar

StartChar: V
Encoding: 86 86 17
Width: 300
Flags: HW
LayerCount: 2
Fore
SplineSet
0 100 m 1
 0 300 l 1
 100 300 l 1
 100 100 l 1
 0 100 l 1
200 100 m 1
 200 300 l 1
 300 300 l 1
 300 100 l 1
 200 100 l 1
100 0 m 1
 100 100 l 1
 200 100 l 1
 200 0 l 1
 100 0 l 1
EndSplineSet
Validated: 5
EndChar

StartChar: W
Encoding: 87 87 18
Width: 300
Flags: HW
LayerCount: 2
Fore
SplineSet
200 200 m 1
 200 300 l 1
 300 300 l 1
 300 0 l 1
 0 0 l 1
 0 300 l 1
 100 300 l 1
 100 200 l 1
 200 200 l 1
EndSplineSet
Validated: 1
EndChar

StartChar: X
Encoding: 88 88 19
Width: 300
Flags: HW
LayerCount: 2
Fore
SplineSet
0 200 m 1
 0 300 l 1
 100 300 l 1
 100 200 l 1
 0 200 l 1
200 200 m 1
 200 300 l 1
 300 300 l 1
 300 200 l 1
 200 200 l 1
100 100 m 1
 100 200 l 1
 200 200 l 1
 200 100 l 1
 100 100 l 1
0 0 m 1
 0 100 l 1
 100 100 l 1
 100 0 l 1
 0 0 l 1
200 0 m 1
 200 100 l 1
 300 100 l 1
 300 0 l 1
 200 0 l 1
EndSplineSet
Validated: 5
EndChar

StartChar: Y
Encoding: 89 89 20
Width: 300
Flags: HW
LayerCount: 2
Fore
SplineSet
0 200 m 1
 0 300 l 1
 100 300 l 1
 100 200 l 1
 0 200 l 1
200 200 m 1
 200 300 l 1
 300 300 l 1
 300 200 l 1
 200 200 l 1
100 0 m 1
 100 200 l 1
 200 200 l 1
 200 0 l 1
 100 0 l 1
EndSplineSet
Validated: 5
EndChar

StartChar: Z
Encoding: 90 90 21
Width: 300
Flags: HW
LayerCount: 2
Fore
SplineSet
200 300 m 1
 200 100 l 1
 300 100 l 1
 300 0 l 1
 100 0 l 1
 100 200 l 1
 0 200 l 1
 0 300 l 1
 200 300 l 1
EndSplineSet
Validated: 1
EndChar

StartChar: Q
Encoding: 81 81 22
Width: 300
Flags: HW
LayerCount: 2
Fore
SplineSet
0 300 m 1
 300 300 l 1
 300 0 l 1
 200 0 l 1
 200 100 l 1
 0 100 l 1
 0 300 l 1
EndSplineSet
Validated: 1
EndChar

StartChar: R
Encoding: 82 82 23
Width: 300
Flags: HW
LayerCount: 2
Fore
SplineSet
0 300 m 1
 300 300 l 1
 300 200 l 1
 200 200 l 1
 200 100 l 1
 100 100 l 1
 100 0 l 1
 0 0 l 1
 0 300 l 1
200 0 m 1
 200 100 l 1
 300 100 l 1
 300 0 l 1
 200 0 l 1
EndSplineSet
Validated: 5
EndChar

StartChar: T
Encoding: 84 84 24
Width: 300
Flags: HW
LayerCount: 2
Fore
SplineSet
0 300 m 1
 300 300 l 1
 300 200 l 1
 200 200 l 1
 200 0 l 1
 100 0 l 1
 100 200 l 1
 0 200 l 1
 0 300 l 1
EndSplineSet
Validated: 1
EndChar

StartChar: U
Encoding: 85 85 25
Width: 300
Flags: HW
LayerCount: 2
Fore
SplineSet
200 100 m 1
 200 300 l 1
 300 300 l 1
 300 0 l 1
 0 0 l 1
 0 300 l 1
 100 300 l 1
 100 100 l 1
 200 100 l 1
EndSplineSet
Validated: 1
EndChar

StartChar: question
Encoding: 63 63 26
Width: 300
Flags: HW
LayerCount: 2
Fore
SplineSet
0 300 m 1
 300 300 l 1
 300 100 l 1
 200 100 l 1
 200 0 l 1
 100 0 l 1
 100 200 l 1
 0 200 l 1
 0 300 l 1
EndSplineSet
Validated: 1
EndChar

StartChar: zero
Encoding: 48 48 27
Width: 300
Flags: HW
LayerCount: 2
Fore
SplineSet
0 300 m 1
 300 300 l 1
 300 0 l 1
 0 0 l 1
 0 300 l 1
200 100 m 1
 200 200 l 1
 100 200 l 1
 100 100 l 1
 200 100 l 1
EndSplineSet
Validated: 1
EndChar

StartChar: one
Encoding: 49 49 28
Width: 300
Flags: HW
LayerCount: 2
Fore
SplineSet
200 300 m 1
 200 100 l 1
 300 100 l 1
 300 0 l 1
 0 0 l 1
 0 100 l 1
 100 100 l 1
 100 200 l 1
 0 200 l 1
 0 300 l 1
 200 300 l 1
EndSplineSet
Validated: 1
EndChar

StartChar: two
Encoding: 50 50 29
Width: 300
Flags: HW
LayerCount: 2
Fore
SplineSet
200 300 m 1
 200 100 l 1
 300 100 l 1
 300 0 l 1
 100 0 l 1
 100 200 l 1
 0 200 l 1
 0 300 l 1
 200 300 l 1
EndSplineSet
Validated: 1
EndChar

StartChar: three
Encoding: 51 51 30
Width: 300
Flags: HW
LayerCount: 2
Fore
SplineSet
0 300 m 1
 300 300 l 1
 300 0 l 1
 0 0 l 1
 0 100 l 1
 100 100 l 1
 100 200 l 1
 0 200 l 1
 0 300 l 1
EndSplineSet
Validated: 1
EndChar

StartChar: four
Encoding: 52 52 31
Width: 300
Flags: HW
LayerCount: 2
Fore
SplineSet
200 200 m 1
 200 300 l 1
 300 300 l 1
 300 0 l 1
 200 0 l 1
 200 100 l 1
 0 100 l 1
 0 300 l 1
 100 300 l 1
 100 200 l 1
 200 200 l 1
EndSplineSet
Validated: 1
EndChar

StartChar: five
Encoding: 53 53 32
Width: 300
Flags: HW
LayerCount: 2
Fore
SplineSet
100 300 m 1
 300 300 l 1
 300 200 l 1
 200 200 l 1
 200 0 l 1
 0 0 l 1
 0 100 l 1
 100 100 l 1
 100 300 l 1
EndSplineSet
Validated: 1
EndChar

StartChar: six
Encoding: 54 54 33
Width: 300
Flags: HW
LayerCount: 2
Fore
SplineSet
100 200 m 1
 300 200 l 1
 300 0 l 1
 0 0 l 1
 0 300 l 1
 100 300 l 1
 100 200 l 1
EndSplineSet
Validated: 1
EndChar

StartChar: seven
Encoding: 55 55 34
Width: 300
Flags: HW
LayerCount: 2
Fore
SplineSet
0 300 m 1
 300 300 l 1
 300 0 l 1
 200 0 l 1
 200 200 l 1
 0 200 l 1
 0 300 l 1
EndSplineSet
Validated: 1
EndChar

StartChar: eight
Encoding: 56 56 35
Width: 300
Flags: HW
LayerCount: 2
Fore
SplineSet
100 300 m 1
 300 300 l 1
 300 0 l 1
 0 0 l 1
 0 200 l 1
 100 200 l 1
 100 300 l 1
EndSplineSet
Validated: 1
EndChar

StartChar: nine
Encoding: 57 57 36
Width: 300
Flags: HW
LayerCount: 2
Fore
SplineSet
0 300 m 1
 300 300 l 1
 300 0 l 1
 200 0 l 1
 200 100 l 1
 0 100 l 1
 0 300 l 1
EndSplineSet
Validated: 1
EndChar

StartChar: plus
Encoding: 43 43 37
Width: 300
Flags: HW
LayerCount: 2
Fore
SplineSet
200 300 m 1
 200 200 l 1
 300 200 l 1
 300 100 l 1
 200 100 l 1
 200 0 l 1
 100 0 l 1
 100 100 l 1
 0 100 l 1
 0 200 l 1
 100 200 l 1
 100 300 l 1
 200 300 l 1
EndSplineSet
Validated: 1
EndChar

StartChar: hyphen
Encoding: 45 45 38
Width: 300
Flags: HW
LayerCount: 2
Fore
SplineSet
0 300 m 1
 300 300 l 1
 300 100 l 1
 200 100 l 1
 200 0 l 1
 100 0 l 1
 100 200 l 1
 0 200 l 1
 0 300 l 1
EndSplineSet
Validated: 1
EndChar

StartChar: comma
Encoding: 44 44 39
Width: 100
Flags: HW
LayerCount: 2
Fore
SplineSet
0 -100 m 1
 0 100 l 1
 100 100 l 1
 100 -100 l 1
 0 -100 l 1
EndSplineSet
Validated: 1
EndChar

StartChar: slash
Encoding: 47 47 40
Width: 300
Flags: HW
LayerCount: 2
Fore
SplineSet
100 100 m 1
 100 200 l 1
 200 200 l 1
 200 100 l 1
 100 100 l 1
200 200 m 1
 200 300 l 1
 300 300 l 1
 300 200 l 1
 200 200 l 1
0 0 m 1
 0 100 l 1
 100 100 l 1
 100 0 l 1
 0 0 l 1
EndSplineSet
Validated: 5
EndChar

StartChar: parenleft
Encoding: 40 40 41
Width: 200
Flags: HW
LayerCount: 2
Fore
SplineSet
100 200 m 1
 100 300 l 1
 200 300 l 1
 200 200 l 1
 100 200 l 1
0 100 m 1
 0 200 l 1
 100 200 l 1
 100 100 l 1
 0 100 l 1
100 0 m 1
 100 100 l 1
 200 100 l 1
 200 0 l 1
 100 0 l 1
EndSplineSet
Validated: 5
EndChar

StartChar: parenright
Encoding: 41 41 42
Width: 200
Flags: HW
LayerCount: 2
Fore
SplineSet
0 200 m 1
 0 300 l 1
 100 300 l 1
 100 200 l 1
 0 200 l 1
100 100 m 1
 100 200 l 1
 200 200 l 1
 200 100 l 1
 100 100 l 1
0 0 m 1
 0 100 l 1
 100 100 l 1
 100 0 l 1
 0 0 l 1
EndSplineSet
Validated: 5
EndChar

StartChar: period
Encoding: 46 46 43
Width: 100
Flags: HW
LayerCount: 2
Fore
SplineSet
0 0 m 1
 0 100 l 1
 100 100 l 1
 100 0 l 1
 0 0 l 1
EndSplineSet
Validated: 1
EndChar

StartChar: backslash
Encoding: 92 92 44
Width: 300
Flags: HW
LayerCount: 2
Fore
SplineSet
100 100 m 1
 100 200 l 1
 200 200 l 1
 200 100 l 1
 100 100 l 1
0 200 m 1
 0 300 l 1
 100 300 l 1
 100 200 l 1
 0 200 l 1
200 0 m 1
 200 100 l 1
 300 100 l 1
 300 0 l 1
 200 0 l 1
EndSplineSet
Validated: 5
EndChar

StartChar: colon
Encoding: 58 58 45
Width: 100
Flags: HW
LayerCount: 2
Fore
SplineSet
0 200 m 1
 0 300 l 1
 100 300 l 1
 100 200 l 1
 0 200 l 1
0 0 m 1
 0 100 l 1
 100 100 l 1
 100 0 l 1
 0 0 l 1
EndSplineSet
Validated: 1
EndChar

StartChar: equal
Encoding: 61 61 46
Width: 300
Flags: HW
LayerCount: 2
Fore
SplineSet
0 200 m 1
 0 300 l 1
 300 300 l 1
 300 200 l 1
 0 200 l 1
0 0 m 1
 0 100 l 1
 300 100 l 1
 300 0 l 1
 0 0 l 1
EndSplineSet
Validated: 1
EndChar

StartChar: a
Encoding: 97 97 97
Width: 300
Flags: HW
LayerCount: 2
Fore
SplineSet
100 200 m 1
 100 300 l 1
 200 300 l 1
 200 200 l 1
 100 200 l 1
200 200 m 1
 200 300 l 1
 300 300 l 1
 300 200 l 1
 200 200 l 1
0 100 m 1
 0 200 l 1
 100 200 l 1
 100 100 l 1
 0 100 l 1
200 100 m 1
 200 200 l 1
 300 200 l 1
 300 100 l 1
 200 100 l 1
100 0 m 1
 100 100 l 1
 200 100 l 1
 200 0 l 1
 100 0 l 1
200 0 m 1
 200 100 l 1
 300 100 l 1
 300 0 l 1
 200 0 l 1
EndSplineSet
Validated: 5
EndChar

StartChar: b
Encoding: 98 98 98
Width: 300
Flags: HW
LayerCount: 2
Fore
SplineSet
0 200 m 1
 0 300 l 1
 100 300 l 1
 100 200 l 1
 0 200 l 1
0 100 m 1
 0 200 l 1
 100 200 l 1
 100 100 l 1
 0 100 l 1
100 100 m 1
 100 200 l 1
 200 200 l 1
 200 100 l 1
 100 100 l 1
200 100 m 1
 200 200 l 1
 300 200 l 1
 300 100 l 1
 200 100 l 1
0 0 m 1
 0 100 l 1
 100 100 l 1
 100 0 l 1
 0 0 l 1
100 0 m 1
 100 100 l 1
 200 100 l 1
 200 0 l 1
 100 0 l 1
200 0 m 1
 200 100 l 1
 300 100 l 1
 300 0 l 1
 200 0 l 1
EndSplineSet
Validated: 5
EndChar

StartChar: c
Encoding: 99 99 99
Width: 300
Flags: HW
LayerCount: 2
Fore
SplineSet
100 200 m 1
 100 300 l 1
 200 300 l 1
 200 200 l 1
 100 200 l 1
200 200 m 1
 200 300 l 1
 300 300 l 1
 300 200 l 1
 200 200 l 1
0 100 m 1
 0 200 l 1
 100 200 l 1
 100 100 l 1
 0 100 l 1
100 0 m 1
 100 100 l 1
 200 100 l 1
 200 0 l 1
 100 0 l 1
200 0 m 1
 200 100 l 1
 300 100 l 1
 300 0 l 1
 200 0 l 1
EndSplineSet
Validated: 5
EndChar

StartChar: d
Encoding: 100 100 100
Width: 300
Flags: HW
LayerCount: 2
Fore
SplineSet
200 200 m 1
 200 300 l 1
 300 300 l 1
 300 200 l 1
 200 200 l 1
0 100 m 1
 0 200 l 1
 100 200 l 1
 100 100 l 1
 0 100 l 1
100 100 m 1
 100 200 l 1
 200 200 l 1
 200 100 l 1
 100 100 l 1
200 100 m 1
 200 200 l 1
 300 200 l 1
 300 100 l 1
 200 100 l 1
0 0 m 1
 0 100 l 1
 100 100 l 1
 100 0 l 1
 0 0 l 1
100 0 m 1
 100 100 l 1
 200 100 l 1
 200 0 l 1
 100 0 l 1
200 0 m 1
 200 100 l 1
 300 100 l 1
 300 0 l 1
 200 0 l 1
EndSplineSet
Validated: 5
EndChar

StartChar: e
Encoding: 101 101 101
Width: 300
Flags: HW
LayerCount: 2
Fore
SplineSet
0 200 m 1
 0 300 l 1
 100 300 l 1
 100 200 l 1
 0 200 l 1
100 200 m 1
 100 300 l 1
 200 300 l 1
 200 200 l 1
 100 200 l 1
200 200 m 1
 200 300 l 1
 300 300 l 1
 300 200 l 1
 200 200 l 1
0 100 m 1
 0 200 l 1
 100 200 l 1
 100 100 l 1
 0 100 l 1
100 100 m 1
 100 200 l 1
 200 200 l 1
 200 100 l 1
 100 100 l 1
200 100 m 1
 200 200 l 1
 300 200 l 1
 300 100 l 1
 200 100 l 1
0 0 m 1
 0 100 l 1
 100 100 l 1
 100 0 l 1
 0 0 l 1
100 0 m 1
 100 100 l 1
 200 100 l 1
 200 0 l 1
 100 0 l 1
EndSplineSet
Validated: 5
EndChar

StartChar: f
Encoding: 102 102 102
Width: 300
Flags: HW
LayerCount: 2
Fore
SplineSet
100 200 m 1
 100 300 l 1
 200 300 l 1
 200 200 l 1
 100 200 l 1
200 200 m 1
 200 300 l 1
 300 300 l 1
 300 200 l 1
 200 200 l 1
0 100 m 1
 0 200 l 1
 100 200 l 1
 100 100 l 1
 0 100 l 1
100 100 m 1
 100 200 l 1
 200 200 l 1
 200 100 l 1
 100 100 l 1
200 100 m 1
 200 200 l 1
 300 200 l 1
 300 100 l 1
 200 100 l 1
100 0 m 1
 100 100 l 1
 200 100 l 1
 200 0 l 1
 100 0 l 1
EndSplineSet
Validated: 5
EndChar

StartChar: g
Encoding: 103 103 103
Width: 300
Flags: HW
LayerCount: 2
Fore
SplineSet
100 200 m 1
 100 300 l 1
 200 300 l 1
 200 200 l 1
 100 200 l 1
200 200 m 1
 200 300 l 1
 300 300 l 1
 300 200 l 1
 200 200 l 1
0 100 m 1
 0 200 l 1
 100 200 l 1
 100 100 l 1
 0 100 l 1
100 100 m 1
 100 200 l 1
 200 200 l 1
 200 100 l 1
 100 100 l 1
200 100 m 1
 200 200 l 1
 300 200 l 1
 300 100 l 1
 200 100 l 1
200 0 m 1
 200 100 l 1
 300 100 l 1
 300 0 l 1
 200 0 l 1
100 -100 m 1
 100 0 l 1
 200 0 l 1
 200 -100 l 1
 100 -100 l 1
0 -100 m 1
 0 0 l 1
 100 0 l 1
 100 -100 l 1
 0 -100 l 1
EndSplineSet
Validated: 5
EndChar

StartChar: h
Encoding: 104 104 104
Width: 300
Flags: HW
LayerCount: 2
Fore
SplineSet
0 200 m 1
 0 300 l 1
 100 300 l 1
 100 200 l 1
 0 200 l 1
0 100 m 1
 0 200 l 1
 100 200 l 1
 100 100 l 1
 0 100 l 1
100 100 m 1
 100 200 l 1
 200 200 l 1
 200 100 l 1
 100 100 l 1
200 100 m 1
 200 200 l 1
 300 200 l 1
 300 100 l 1
 200 100 l 1
0 0 m 1
 0 100 l 1
 100 100 l 1
 100 0 l 1
 0 0 l 1
200 0 m 1
 200 100 l 1
 300 100 l 1
 300 0 l 1
 200 0 l 1
EndSplineSet
Validated: 5
EndChar

StartChar: i
Encoding: 105 105 105
Width: 300
Flags: HW
LayerCount: 2
Fore
SplineSet
100 200 m 1
 100 300 l 1
 200 300 l 1
 200 200 l 1
 100 200 l 1
0 0 m 1
 0 100 l 1
 100 100 l 1
 100 0 l 1
 0 0 l 1
100 0 m 1
 100 100 l 1
 200 100 l 1
 200 0 l 1
 100 0 l 1
200 0 m 1
 200 100 l 1
 300 100 l 1
 300 0 l 1
 200 0 l 1
EndSplineSet
Validated: 5
EndChar

StartChar: j
Encoding: 106 106 106
Width: 300
Flags: HW
LayerCount: 2
Fore
SplineSet
200 200 m 1
 200 300 l 1
 300 300 l 1
 300 200 l 1
 200 200 l 1
0 0 m 1
 0 100 l 1
 100 100 l 1
 100 0 l 1
 0 0 l 1
200 0 m 1
 200 100 l 1
 300 100 l 1
 300 0 l 1
 200 0 l 1
100 -100 m 1
 100 0 l 1
 200 0 l 1
 200 -100 l 1
 100 -100 l 1
EndSplineSet
Validated: 5
EndChar

StartChar: k
Encoding: 107 107 107
Width: 300
Flags: HW
LayerCount: 2
Fore
SplineSet
0 200 m 1
 0 300 l 1
 100 300 l 1
 100 200 l 1
 0 200 l 1
200 200 m 1
 200 300 l 1
 300 300 l 1
 300 200 l 1
 200 200 l 1
0 100 m 1
 0 200 l 1
 100 200 l 1
 100 100 l 1
 0 100 l 1
100 100 m 1
 100 200 l 1
 200 200 l 1
 200 100 l 1
 100 100 l 1
0 0 m 1
 0 100 l 1
 100 100 l 1
 100 0 l 1
 0 0 l 1
200 0 m 1
 200 100 l 1
 300 100 l 1
 300 0 l 1
 200 0 l 1
EndSplineSet
Validated: 5
EndChar

StartChar: l
Encoding: 108 108 108
Width: 300
Flags: HW
LayerCount: 2
Fore
SplineSet
0 200 m 1
 0 300 l 1
 100 300 l 1
 100 200 l 1
 0 200 l 1
100 200 m 1
 100 300 l 1
 200 300 l 1
 200 200 l 1
 100 200 l 1
100 100 m 1
 100 200 l 1
 200 200 l 1
 200 100 l 1
 100 100 l 1
100 0 m 1
 100 100 l 1
 200 100 l 1
 200 0 l 1
 100 0 l 1
EndSplineSet
Validated: 5
EndChar

StartChar: m
Encoding: 109 109 109
Width: 300
Flags: HW
LayerCount: 2
Fore
SplineSet
0 200 m 1
 0 300 l 1
 100 300 l 1
 100 200 l 1
 0 200 l 1
100 200 m 1
 100 300 l 1
 200 300 l 1
 200 200 l 1
 100 200 l 1
200 200 m 1
 200 300 l 1
 300 300 l 1
 300 200 l 1
 200 200 l 1
0 100 m 1
 0 200 l 1
 100 200 l 1
 100 100 l 1
 0 100 l 1
100 100 m 1
 100 200 l 1
 200 200 l 1
 200 100 l 1
 100 100 l 1
200 100 m 1
 200 200 l 1
 300 200 l 1
 300 100 l 1
 200 100 l 1
0 0 m 1
 0 100 l 1
 100 100 l 1
 100 0 l 1
 0 0 l 1
200 0 m 1
 200 100 l 1
 300 100 l 1
 300 0 l 1
 200 0 l 1
EndSplineSet
Validated: 5
EndChar

StartChar: n
Encoding: 110 110 110
Width: 300
Flags: HW
LayerCount: 2
Fore
SplineSet
0 200 m 1
 0 300 l 1
 100 300 l 1
 100 200 l 1
 0 200 l 1
100 200 m 1
 100 300 l 1
 200 300 l 1
 200 200 l 1
 100 200 l 1
0 100 m 1
 0 200 l 1
 100 200 l 1
 100 100 l 1
 0 100 l 1
200 100 m 1
 200 200 l 1
 300 200 l 1
 300 100 l 1
 200 100 l 1
0 0 m 1
 0 100 l 1
 100 100 l 1
 100 0 l 1
 0 0 l 1
200 0 m 1
 200 100 l 1
 300 100 l 1
 300 0 l 1
 200 0 l 1
EndSplineSet
Validated: 5
EndChar

StartChar: o
Encoding: 111 111 111
Width: 300
Flags: HW
LayerCount: 2
Fore
SplineSet
100 200 m 1
 100 300 l 1
 200 300 l 1
 200 200 l 1
 100 200 l 1
0 100 m 1
 0 200 l 1
 100 200 l 1
 100 100 l 1
 0 100 l 1
200 100 m 1
 200 200 l 1
 300 200 l 1
 300 100 l 1
 200 100 l 1
100 0 m 1
 100 100 l 1
 200 100 l 1
 200 0 l 1
 100 0 l 1
EndSplineSet
Validated: 5
EndChar

StartChar: p
Encoding: 112 112 112
Width: 300
Flags: HW
LayerCount: 2
Fore
SplineSet
0 100 m 1
 0 200 l 1
 100 200 l 1
 100 100 l 1
 0 100 l 1
200 100 m 1
 200 200 l 1
 300 200 l 1
 300 100 l 1
 200 100 l 1
100 100 m 1
 100 200 l 1
 200 200 l 1
 200 100 l 1
 100 100 l 1
0 0 m 1
 0 100 l 1
 100 100 l 1
 100 0 l 1
 0 0 l 1
100 0 m 1
 100 100 l 1
 200 100 l 1
 200 0 l 1
 100 0 l 1
200 0 m 1
 200 100 l 1
 300 100 l 1
 300 0 l 1
 200 0 l 1
0 -100 m 1
 0 0 l 1
 100 0 l 1
 100 -100 l 1
 0 -100 l 1
EndSplineSet
Validated: 5
EndChar

StartChar: q
Encoding: 113 113 113
Width: 300
Flags: HW
LayerCount: 2
Fore
SplineSet
0 100 m 1
 0 200 l 1
 100 200 l 1
 100 100 l 1
 0 100 l 1
100 100 m 1
 100 200 l 1
 200 200 l 1
 200 100 l 1
 100 100 l 1
200 100 m 1
 200 200 l 1
 300 200 l 1
 300 100 l 1
 200 100 l 1
0 0 m 1
 0 100 l 1
 100 100 l 1
 100 0 l 1
 0 0 l 1
100 0 m 1
 100 100 l 1
 200 100 l 1
 200 0 l 1
 100 0 l 1
200 0 m 1
 200 100 l 1
 300 100 l 1
 300 0 l 1
 200 0 l 1
200 -100 m 1
 200 0 l 1
 300 0 l 1
 300 -100 l 1
 200 -100 l 1
EndSplineSet
Validated: 5
EndChar

StartChar: r
Encoding: 114 114 114
Width: 300
Flags: HW
LayerCount: 2
Fore
SplineSet
0 200 m 1
 0 300 l 1
 100 300 l 1
 100 200 l 1
 0 200 l 1
100 200 m 1
 100 300 l 1
 200 300 l 1
 200 200 l 1
 100 200 l 1
0 100 m 1
 0 200 l 1
 100 200 l 1
 100 100 l 1
 0 100 l 1
200 100 m 1
 200 200 l 1
 300 200 l 1
 300 100 l 1
 200 100 l 1
0 0 m 1
 0 100 l 1
 100 100 l 1
 100 0 l 1
 0 0 l 1
EndSplineSet
Validated: 5
EndChar

StartChar: s
Encoding: 115 115 115
Width: 300
Flags: HW
LayerCount: 2
Fore
SplineSet
100 200 m 1
 100 300 l 1
 200 300 l 1
 200 200 l 1
 100 200 l 1
200 200 m 1
 200 300 l 1
 300 300 l 1
 300 200 l 1
 200 200 l 1
100 100 m 1
 100 200 l 1
 200 200 l 1
 200 100 l 1
 100 100 l 1
0 0 m 1
 0 100 l 1
 100 100 l 1
 100 0 l 1
 0 0 l 1
100 0 m 1
 100 100 l 1
 200 100 l 1
 200 0 l 1
 100 0 l 1
EndSplineSet
Validated: 5
EndChar

StartChar: t
Encoding: 116 116 116
Width: 300
Flags: HW
LayerCount: 2
Fore
SplineSet
100 200 m 1
 100 300 l 1
 200 300 l 1
 200 200 l 1
 100 200 l 1
0 100 m 1
 0 200 l 1
 100 200 l 1
 100 100 l 1
 0 100 l 1
100 100 m 1
 100 200 l 1
 200 200 l 1
 200 100 l 1
 100 100 l 1
200 100 m 1
 200 200 l 1
 300 200 l 1
 300 100 l 1
 200 100 l 1
100 0 m 1
 100 100 l 1
 200 100 l 1
 200 0 l 1
 100 0 l 1
EndSplineSet
Validated: 5
EndChar

StartChar: u
Encoding: 117 117 117
Width: 300
Flags: HW
LayerCount: 2
Fore
SplineSet
0 100 m 1
 0 200 l 1
 100 200 l 1
 100 100 l 1
 0 100 l 1
200 100 m 1
 200 200 l 1
 300 200 l 1
 300 100 l 1
 200 100 l 1
0 0 m 1
 0 100 l 1
 100 100 l 1
 100 0 l 1
 0 0 l 1
100 0 m 1
 100 100 l 1
 200 100 l 1
 200 0 l 1
 100 0 l 1
200 0 m 1
 200 100 l 1
 300 100 l 1
 300 0 l 1
 200 0 l 1
EndSplineSet
Validated: 5
EndChar

StartChar: v
Encoding: 118 118 118
Width: 300
Flags: HW
LayerCount: 2
Fore
SplineSet
0 100 m 1
 0 200 l 1
 100 200 l 1
 100 100 l 1
 0 100 l 1
200 100 m 1
 200 200 l 1
 300 200 l 1
 300 100 l 1
 200 100 l 1
100 0 m 1
 100 100 l 1
 200 100 l 1
 200 0 l 1
 100 0 l 1
EndSplineSet
Validated: 5
EndChar

StartChar: w
Encoding: 119 119 119
Width: 300
Flags: HW
LayerCount: 2
Fore
SplineSet
0 200 m 1
 0 300 l 1
 100 300 l 1
 100 200 l 1
 0 200 l 1
200 200 m 1
 200 300 l 1
 300 300 l 1
 300 200 l 1
 200 200 l 1
0 100 m 1
 0 200 l 1
 100 200 l 1
 100 100 l 1
 0 100 l 1
100 100 m 1
 100 200 l 1
 200 200 l 1
 200 100 l 1
 100 100 l 1
200 100 m 1
 200 200 l 1
 300 200 l 1
 300 100 l 1
 200 100 l 1
0 0 m 1
 0 100 l 1
 100 100 l 1
 100 0 l 1
 0 0 l 1
100 0 m 1
 100 100 l 1
 200 100 l 1
 200 0 l 1
 100 0 l 1
200 0 m 1
 200 100 l 1
 300 100 l 1
 300 0 l 1
 200 0 l 1
EndSplineSet
Validated: 5
EndChar

StartChar: x
Encoding: 120 120 120
Width: 300
Flags: HW
LayerCount: 2
Fore
SplineSet
0 200 m 1
 0 300 l 1
 100 300 l 1
 100 200 l 1
 0 200 l 1
200 200 m 1
 200 300 l 1
 300 300 l 1
 300 200 l 1
 200 200 l 1
100 100 m 1
 100 200 l 1
 200 200 l 1
 200 100 l 1
 100 100 l 1
0 0 m 1
 0 100 l 1
 100 100 l 1
 100 0 l 1
 0 0 l 1
200 0 m 1
 200 100 l 1
 300 100 l 1
 300 0 l 1
 200 0 l 1
EndSplineSet
Validated: 5
EndChar

StartChar: y
Encoding: 121 121 121
Width: 300
Flags: HW
LayerCount: 2
Fore
SplineSet
0 200 m 1
 0 300 l 1
 100 300 l 1
 100 200 l 1
 0 200 l 1
200 200 m 1
 200 300 l 1
 300 300 l 1
 300 200 l 1
 200 200 l 1
0 100 m 1
 0 200 l 1
 100 200 l 1
 100 100 l 1
 0 100 l 1
100 100 m 1
 100 200 l 1
 200 200 l 1
 200 100 l 1
 100 100 l 1
200 100 m 1
 200 200 l 1
 300 200 l 1
 300 100 l 1
 200 100 l 1
200 0 m 1
 200 100 l 1
 300 100 l 1
 300 0 l 1
 200 0 l 1
0 -100 m 1
 0 0 l 1
 100 0 l 1
 100 -100 l 1
 0 -100 l 1
100 -100 m 1
 100 0 l 1
 200 0 l 1
 200 -100 l 1
 100 -100 l 1
EndSplineSet
Validated: 5
EndChar

StartChar: z
Encoding: 122 122 122
Width: 300
Flags: HW
LayerCount: 2
Fore
SplineSet
0 200 m 1
 0 300 l 1
 100 300 l 1
 100 200 l 1
 0 200 l 1
100 200 m 1
 100 300 l 1
 200 300 l 1
 200 200 l 1
 100 200 l 1
100 100 m 1
 100 200 l 1
 200 200 l 1
 200 100 l 1
 100 100 l 1
100 0 m 1
 100 100 l 1
 200 100 l 1
 200 0 l 1
 100 0 l 1
200 0 m 1
 200 100 l 1
 300 100 l 1
 300 0 l 1
 200 0 l 1
EndSplineSet
Validated: 5
EndChar

